# xmcd
#
# Track frame offsets:
# 150
# 12645
# 26442
# 42507
# 57787
# 75945
# 93855
# 109220
# 128547
# 141872
# 156042
# 171115
# 184625
# 208732
#
# Disc length: 2793 seconds
#
# Revision: 1
# Processed by: cddbd v1.4PL0 Copyright (c) Steve Scherf et al.
# Submitted via: Easy CD Ripper v2.13
#
DISCID=ae0ae70e
DTITLE=Toby Keith - Pull My Chain
DYEAR=2001
DGENRE=Country
TTITLE0=I'm Just Talkin' About Tonight - Toby Keith
TTITLE1=I Wanna Talk About Me - Toby Keith
TTITLE2=I Can't Take You Anywhere - Toby Keith
TTITLE3=You Leave Me Weak - Toby Keith
TTITLE4=Tryin' To Matter - Toby Keith
TTITLE5=Pull My Chain - Toby Keith
TTITLE6=The Sha La La Song - Toby Keith
TTITLE7=Pick 'Em Up And Lay 'Em Down - Toby Keith
TTITLE8=Forever Hasn't Got Here Yet - Toby Keith
TTITLE9=Yesterdays Rain - Toby Keith
TTITLE10=My List - Toby Keith
TTITLE11=You Didnt Have As Much To Lose - Toby Keith
TTITLE12=Gimme 8 Seconds - Toby Keith
TTITLE13=Data - Toby Keith
EXTD=
EXTT0=
EXTT1=
EXTT2=
EXTT3=
EXTT4=
EXTT5=
EXTT6=
EXTT7=
EXTT8=
EXTT9=
EXTT10=
EXTT11=
EXTT12=
EXTT13=
PLAYORDER=
